<!-- icon666.com - MILLIONS vector ICONS FREE --><svg viewBox="0 0 128 128" xmlns="http://www.w3.org/2000/svg"><g><path d="m99.8 92.624 15.537-41.766a37.713 37.713 0 0 0 -35.343-50.858h-15.184a37.584 37.584 0 0 0 -31.594 17.119l-6.928 10.63a15.241 15.241 0 0 0 .212 16.865l-15.7 15.81a1.749 1.749 0 0 0 -.016 2.451l7.556 7.793-1.06 7.311a6.277 6.277 0 0 0 3.764 6.681l1.591.674.446 4.316a11.965 11.965 0 0 0 16.219 9.93l3.013-1.164a8.465 8.465 0 0 1 11.405 9.264l-2.993 18.291a1.748 1.748 0 0 0 1.722 2.029h61.5a1.75 1.75 0 0 0 1.579-2.5zm-45.293 31.876 2.66-16.259a11.965 11.965 0 0 0 -16.12-13.091l-3.013 1.165a8.465 8.465 0 0 1 -11.472-7.025l-.553-5.346a1.748 1.748 0 0 0 -1.058-1.43l-2.543-1.076a2.779 2.779 0 0 1 -1.665-2.955l1.186-8.164a1.75 1.75 0 0 0 -.475-1.469l-6.954-7.178 15.563-15.672a1.75 1.75 0 0 0 .086-2.375 11.711 11.711 0 0 1 -.929-13.962l6.927-10.63a34.1 34.1 0 0 1 28.663-15.533h15.184a34.213 34.213 0 0 1 32.066 46.138l-15.796 42.462a1.754 1.754 0 0 0 .061 1.365l14.845 31.035z"></path><path d="m79.719 54.876 2.381-4.757a1.75 1.75 0 0 0 .1-1.315l-5.646-17.746h1.627a1.75 1.75 0 0 0 0-3.5h-.725a10.156 10.156 0 1 0 -18.868 0h-.726a1.75 1.75 0 0 0 0 3.5h1.626l-5.65 17.742a1.75 1.75 0 0 0 .1 1.315l2.383 4.757a4.747 4.747 0 0 0 -4.586 4.733v4.463a1.749 1.749 0 0 0 1.75 1.75h29.07a1.75 1.75 0 0 0 1.75-1.75v-4.459a4.747 4.747 0 0 0 -4.586-4.733zm-11.7-37.7a6.648 6.648 0 0 1 5.506 10.385h-11.008a6.647 6.647 0 0 1 5.5-10.385zm-4.857 13.882h9.719l5.772 18.13-2.841 5.671h-15.582l-2.84-5.671zm17.643 31.264h-25.567v-2.713a1.252 1.252 0 0 1 1.25-1.25h23.067a1.252 1.252 0 0 1 1.25 1.25z"></path></g></svg>